<svg width="900" height="1600" viewBox="0 0 900 1600" fill="none" xmlns="http://www.w3.org/2000/svg">
  <defs>
    <linearGradient id="bg" x1="0" y1="0" x2="900" y2="1600" gradientUnits="userSpaceOnUse">
      <stop stop-color="#F7F5F0"/>
      <stop offset="1" stop-color="#ECE8E0"/>
    </linearGradient>
    <filter id="shadow" x="-20%" y="-20%" width="140%" height="160%">
      <feDropShadow dx="0" dy="18" stdDeviation="28" flood-color="#141618" flood-opacity="0.10"/>
    </filter>
    <filter id="glow" x="-120%" y="-120%" width="340%" height="340%">
      <feGaussianBlur stdDeviation="18" result="blur"/>
      <feMerge><feMergeNode in="blur"/><feMergeNode in="SourceGraphic"/></feMerge>
    </filter>
    <filter id="tinyGlow" x="-120%" y="-120%" width="340%" height="340%">
      <feGaussianBlur stdDeviation="6" result="blur"/>
      <feMerge><feMergeNode in="blur"/><feMergeNode in="SourceGraphic"/></feMerge>
    </filter>
    <g id="starFill">
      <path d="M12 0L15.2 8.1L24 8.8L17.2 14.6L19.4 23.2L12 18.3L4.6 23.2L6.8 14.6L0 8.8L8.8 8.1L12 0Z" fill="#16B981"/>
    </g>
    <g id="starLine">
      <path d="M12 1.8L14.7 8.5L21.9 9.1L16.4 13.9L18.2 21L12 16.9L5.8 21L7.6 13.9L2.1 9.1L9.3 8.5L12 1.8Z" stroke="#16B981" stroke-width="1.8" fill="none"/>
    </g>
  </defs>
  <rect width="900" height="1600" fill="url(#bg)"/>

  <g filter="url(#shadow)">
    <rect x="34" y="32" width="832" height="172" rx="40" fill="#FFFFFF" fill-opacity="0.78"/>
  </g>
  <circle cx="88" cy="90" r="34" fill="#FFFFFF" fill-opacity="0.92"/>
  <use href="#starFill" transform="translate(76 78)"/>
  <text x="140" y="92" fill="#141618" font-family="Arial, sans-serif" font-size="28" font-weight="800">TimeFlow</text>
  <text x="140" y="122" fill="#7C7F82" font-family="Arial, sans-serif" font-size="18" font-weight="600">时流 · 此刻 / Liquid Star Pool</text>

  <g opacity="0.95">
    <rect x="48" y="146" width="320" height="42" rx="21" fill="#FFFFFF" fill-opacity="0.84"/>
    <circle cx="79" cy="167" r="16" fill="#16B981"/>
    <circle cx="130" cy="167" r="3.5" fill="#7D8287"/>
    <rect x="166" y="158" width="19" height="18" rx="4" stroke="#7D8287" stroke-width="1.6"/>
    <rect x="224" y="158" width="18" height="18" rx="4" stroke="#7D8287" stroke-width="1.6"/>
    <circle cx="292" cy="167" r="9" stroke="#7D8287" stroke-width="1.6"/>
  </g>

  <g filter="url(#shadow)">
    <path d="M92 382C162 298 290 248 450 248C610 248 738 298 808 382C846 428 864 484 864 546C864 660 802 744 694 788C590 830 530 920 520 1034C516 1078 504 1112 482 1140C468 1158 452 1166 436 1164C324 1158 256 1106 234 1008C218 936 176 874 106 814C54 768 28 708 28 636C28 544 50 470 92 382Z" fill="#FFFFFF" fill-opacity="0.30"/>
  </g>

  <g opacity="0.25">
    <path d="M120 606C238 544 342 522 452 530C568 538 664 566 788 650" stroke="#16B981" stroke-width="1.2"/>
    <path d="M132 792C246 728 350 706 452 714C562 724 650 754 762 836" stroke="#16B981" stroke-width="1.1"/>
    <path d="M156 962C268 904 358 884 452 892C548 902 636 930 734 1014" stroke="#16B981" stroke-width="1.1"/>
  </g>

  <g opacity="0.92" filter="url(#tinyGlow)">
    <use href="#starLine" transform="translate(132 500) scale(0.52)"/>
    <use href="#starFill" transform="translate(214 606) scale(0.44)" opacity="0.58"/>
    <use href="#starFill" transform="translate(290 452) scale(0.50)" opacity="0.72"/>
    <use href="#starLine" transform="translate(364 560) scale(0.46)"/>
    <use href="#starFill" transform="translate(614 462) scale(0.46)" opacity="0.62"/>
    <use href="#starLine" transform="translate(704 578) scale(0.52)"/>
    <use href="#starFill" transform="translate(642 764) scale(0.42)" opacity="0.54"/>
    <use href="#starLine" transform="translate(308 846) scale(0.44)"/>
    <use href="#starFill" transform="translate(196 924) scale(0.5)" opacity="0.62"/>
    <use href="#starLine" transform="translate(548 948) scale(0.46)"/>
    <use href="#starFill" transform="translate(698 1046) scale(0.40)" opacity="0.5"/>
  </g>

  <g filter="url(#glow)">
    <ellipse cx="452" cy="804" rx="184" ry="138" fill="#16B981" fill-opacity="0.08"/>
    <ellipse cx="452" cy="804" rx="132" ry="100" fill="#16B981" fill-opacity="0.08"/>
  </g>
  <use href="#starFill" transform="translate(404 756) scale(4)"/>

  <g filter="url(#shadow)">
    <rect x="500" y="714" width="188" height="64" rx="32" fill="#FFFFFF" fill-opacity="0.88"/>
  </g>
  <circle cx="538" cy="746" r="13" fill="#E9FAF4"/>
  <path d="M538 738V746L544 750" stroke="#16B981" stroke-width="2" stroke-linecap="round" stroke-linejoin="round"/>
  <text x="564" y="754" fill="#16B981" font-family="Arial, sans-serif" font-size="22" font-weight="800">21:00 - 22:00</text>

  <g opacity="0.78">
    <text x="246" y="1328" fill="#141618" font-family="Arial, sans-serif" font-size="34" font-weight="800">像一片液态玻璃水面里的星池</text>
    <text x="204" y="1370" fill="#7C7F82" font-family="Arial, sans-serif" font-size="23" font-weight="600">柔和、流动、情绪化，主星像被潮汐轻轻托起</text>
  </g>
</svg>
