<svg width="900" height="1600" viewBox="0 0 900 1600" fill="none" xmlns="http://www.w3.org/2000/svg">
  <defs>
    <linearGradient id="bg" x1="0" y1="0" x2="0" y2="1600" gradientUnits="userSpaceOnUse">
      <stop stop-color="#F8F6F1"/>
      <stop offset="1" stop-color="#EEEAE1"/>
    </linearGradient>
    <filter id="shadow" x="-20%" y="-20%" width="140%" height="160%">
      <feDropShadow dx="0" dy="20" stdDeviation="28" flood-color="#141618" flood-opacity="0.10"/>
    </filter>
    <filter id="glow" x="-100%" y="-100%" width="300%" height="300%">
      <feGaussianBlur stdDeviation="18" result="blur"/>
      <feMerge>
        <feMergeNode in="blur"/>
        <feMergeNode in="SourceGraphic"/>
      </feMerge>
    </filter>
    <g id="starFill">
      <path d="M12 0L15.2 8.1L24 8.8L17.2 14.6L19.4 23.2L12 18.3L4.6 23.2L6.8 14.6L0 8.8L8.8 8.1L12 0Z" fill="#16B981"/>
    </g>
    <g id="starLine">
      <path d="M12 1.8L14.7 8.5L21.9 9.1L16.4 13.9L18.2 21L12 16.9L5.8 21L7.6 13.9L2.1 9.1L9.3 8.5L12 1.8Z" stroke="#16B981" stroke-width="1.8" fill="none"/>
    </g>
  </defs>

  <rect width="900" height="1600" fill="url(#bg)"/>

  <g filter="url(#shadow)">
    <rect x="34" y="30" width="832" height="170" rx="40" fill="#FFFFFF" fill-opacity="0.78"/>
  </g>
  <circle cx="88" cy="88" r="34" fill="#FFFFFF" fill-opacity="0.92"/>
  <use href="#starFill" transform="translate(76 76)"/>
  <text x="140" y="90" fill="#141618" font-family="Arial, sans-serif" font-size="28" font-weight="800">TimeFlow</text>
  <text x="140" y="120" fill="#7C7F82" font-family="Arial, sans-serif" font-size="18" font-weight="600">时流 · 此刻 / Time Sanctuary</text>

  <g opacity="0.92">
    <rect x="50" y="142" width="320" height="42" rx="21" fill="#FFFFFF" fill-opacity="0.86"/>
    <circle cx="79" cy="163" r="16" fill="#16B981"/>
    <text x="73" y="169" fill="white" font-family="Arial, sans-serif" font-size="17">○</text>
    <circle cx="130" cy="163" r="3.5" fill="#80848A"/>
    <rect x="166" y="154" width="19" height="18" rx="4" stroke="#80848A" stroke-width="1.6"/>
    <rect x="224" y="154" width="18" height="18" rx="4" stroke="#80848A" stroke-width="1.6"/>
    <circle cx="292" cy="163" r="9" stroke="#80848A" stroke-width="1.6"/>
  </g>

  <g opacity="0.18">
    <path d="M176 1098C278 1002 356 886 394 744" stroke="#16B981" stroke-width="1.2"/>
    <path d="M724 1098C622 1002 544 886 506 744" stroke="#16B981" stroke-width="1.2"/>
    <path d="M254 1248C338 1112 394 980 426 844" stroke="#16B981" stroke-width="1.1"/>
    <path d="M646 1248C562 1112 506 980 474 844" stroke="#16B981" stroke-width="1.1"/>
  </g>

  <g opacity="0.55">
    <use href="#starLine" transform="translate(214 428) scale(0.52)"/>
    <use href="#starFill" transform="translate(300 348) scale(0.42)"/>
    <use href="#starLine" transform="translate(608 350) scale(0.46)"/>
    <use href="#starFill" transform="translate(674 442) scale(0.38)" opacity="0.54"/>
    <use href="#starLine" transform="translate(176 1196) scale(0.48)"/>
    <use href="#starFill" transform="translate(700 1186) scale(0.44)" opacity="0.58"/>
  </g>

  <g filter="url(#shadow)">
    <path d="M300 478C350 414 416 384 450 384C484 384 550 414 600 478C644 536 670 618 670 708C670 810 638 898 576 966C528 1018 482 1046 450 1046C418 1046 372 1018 324 966C262 898 230 810 230 708C230 618 256 536 300 478Z" fill="#FFFFFF" fill-opacity="0.56"/>
  </g>

  <g opacity="0.16">
    <path d="M450 402L450 1024" stroke="#16B981" stroke-width="1.2"/>
    <path d="M278 716L622 716" stroke="#16B981" stroke-width="1.2"/>
  </g>

  <g filter="url(#glow)">
    <ellipse cx="450" cy="716" rx="126" ry="126" fill="#16B981" fill-opacity="0.08"/>
    <ellipse cx="450" cy="716" rx="88" ry="88" fill="#16B981" fill-opacity="0.08"/>
  </g>

  <use href="#starFill" transform="translate(402 668) scale(4)"/>

  <g opacity="0.82">
    <use href="#starFill" transform="translate(258 642) scale(0.7)" opacity="0.72"/>
    <use href="#starLine" transform="translate(628 642) scale(0.66)"/>
    <use href="#starLine" transform="translate(302 884) scale(0.62)"/>
    <use href="#starFill" transform="translate(570 884) scale(0.68)" opacity="0.66"/>
  </g>

  <g filter="url(#shadow)">
    <rect x="516" y="566" width="192" height="64" rx="32" fill="#FFFFFF" fill-opacity="0.88"/>
  </g>
  <circle cx="554" cy="598" r="13" fill="#E9FAF4"/>
  <path d="M554 590V598L560 602" stroke="#16B981" stroke-width="2" stroke-linecap="round" stroke-linejoin="round"/>
  <text x="580" y="606" fill="#16B981" font-family="Arial, sans-serif" font-size="22" font-weight="800">21:00 - 22:00</text>

  <g opacity="0.76">
    <text x="302" y="1288" fill="#141618" font-family="Arial, sans-serif" font-size="34" font-weight="800">把当前一小时做成一座圣坛</text>
    <text x="246" y="1330" fill="#7C7F82" font-family="Arial, sans-serif" font-size="23" font-weight="600">静、重、中心感极强，像一个被供起来的此刻</text>
  </g>
</svg>
