<svg width="900" height="1600" viewBox="0 0 900 1600" fill="none" xmlns="http://www.w3.org/2000/svg">
  <defs>
    <linearGradient id="bg2" x1="0" y1="0" x2="900" y2="1600" gradientUnits="userSpaceOnUse">
      <stop stop-color="#F7F5F0"/>
      <stop offset="1" stop-color="#F0ECE4"/>
    </linearGradient>
    <filter id="shadow2" x="-20%" y="-20%" width="140%" height="160%">
      <feDropShadow dx="0" dy="18" stdDeviation="26" flood-color="#141618" flood-opacity="0.10"/>
    </filter>
    <filter id="glow2" x="-120%" y="-120%" width="360%" height="360%">
      <feGaussianBlur stdDeviation="16" result="blur"/>
      <feMerge>
        <feMergeNode in="blur"/>
        <feMergeNode in="SourceGraphic"/>
      </feMerge>
    </filter>
    <g id="starFill2">
      <path d="M12 0L15.2 8.1L24 8.8L17.2 14.6L19.4 23.2L12 18.3L4.6 23.2L6.8 14.6L0 8.8L8.8 8.1L12 0Z" fill="#16B981"/>
    </g>
    <g id="starLine2">
      <path d="M12 1.8L14.7 8.5L21.9 9.1L16.4 13.9L18.2 21L12 16.9L5.8 21L7.6 13.9L2.1 9.1L9.3 8.5L12 1.8Z" stroke="#16B981" stroke-width="1.8" fill="none"/>
    </g>
  </defs>

  <rect width="900" height="1600" fill="url(#bg2)"/>

  <g filter="url(#shadow2)">
    <rect x="34" y="30" width="832" height="170" rx="40" fill="#FFFFFF" fill-opacity="0.78"/>
  </g>
  <circle cx="88" cy="88" r="34" fill="#FFFFFF" fill-opacity="0.92"/>
  <use href="#starFill2" transform="translate(76 76)"/>
  <text x="140" y="90" fill="#141618" font-family="Arial, sans-serif" font-size="28" font-weight="800">TimeFlow</text>
  <text x="140" y="120" fill="#7C7F82" font-family="Arial, sans-serif" font-size="18" font-weight="600">时流 · 此刻 / Cosmic Console</text>

  <g opacity="0.2">
    <path d="M84 316H816" stroke="#16B981" stroke-width="1.1"/>
    <path d="M84 574H816" stroke="#16B981" stroke-width="1.1"/>
    <path d="M84 832H816" stroke="#16B981" stroke-width="1.1"/>
    <path d="M84 1090H816" stroke="#16B981" stroke-width="1.1"/>
    <path d="M150 262V1254" stroke="#16B981" stroke-width="1.1"/>
    <path d="M450 242V1280" stroke="#16B981" stroke-width="1.1"/>
    <path d="M744 262V1254" stroke="#16B981" stroke-width="1.1"/>
  </g>

  <g opacity="0.42">
    <circle cx="150" cy="316" r="5" fill="#16B981"/>
    <circle cx="450" cy="316" r="5" fill="#16B981"/>
    <circle cx="744" cy="316" r="5" fill="#16B981"/>
    <circle cx="150" cy="832" r="5" fill="#16B981"/>
    <circle cx="744" cy="1090" r="5" fill="#16B981"/>
  </g>

  <g opacity="0.92">
    <use href="#starLine2" transform="translate(108 352) scale(0.58)"/>
    <use href="#starFill2" transform="translate(254 276) scale(0.48)" opacity="0.56"/>
    <use href="#starLine2" transform="translate(620 332) scale(0.54)"/>
    <use href="#starFill2" transform="translate(770 476) scale(0.5)" opacity="0.54"/>
    <use href="#starLine2" transform="translate(170 620) scale(0.62)"/>
    <use href="#starFill2" transform="translate(316 564) scale(0.56)" opacity="0.76"/>
    <use href="#starLine2" transform="translate(610 610) scale(0.64)"/>
    <use href="#starFill2" transform="translate(756 710) scale(0.46)" opacity="0.62"/>
    <use href="#starLine2" transform="translate(214 934) scale(0.6)"/>
    <use href="#starFill2" transform="translate(650 1012) scale(0.58)" opacity="0.66"/>
    <use href="#starLine2" transform="translate(336 1156) scale(0.52)"/>
    <use href="#starFill2" transform="translate(120 1184) scale(0.44)" opacity="0.48"/>
  </g>

  <g opacity="0.18">
    <path d="M162 622L316 588L450 716L612 636L752 720" stroke="#16B981" stroke-width="1.2"/>
    <path d="M206 944L332 1192L450 716L648 1028" stroke="#16B981" stroke-width="1.1"/>
  </g>

  <g filter="url(#glow2)">
    <circle cx="450" cy="716" r="128" fill="#16B981" fill-opacity="0.07"/>
  </g>
  <use href="#starFill2" transform="translate(402 668) scale(4)"/>

  <g filter="url(#shadow2)">
    <rect x="510" y="640" width="200" height="68" rx="34" fill="#FFFFFF" fill-opacity="0.9"/>
  </g>
  <circle cx="550" cy="674" r="13" fill="#E9FAF4"/>
  <path d="M550 666V674L556 678" stroke="#16B981" stroke-width="2" stroke-linecap="round" stroke-linejoin="round"/>
  <text x="576" y="682" fill="#16B981" font-family="Arial, sans-serif" font-size="22" font-weight="800">21:00 - 22:00</text>

  <g filter="url(#shadow2)">
    <rect x="84" y="1338" width="732" height="110" rx="36" fill="#FFFFFF" fill-opacity="0.76"/>
  </g>
  <text x="126" y="1390" fill="#141618" font-family="Arial, sans-serif" font-size="34" font-weight="800">像一张未来坐标台</text>
  <text x="126" y="1428" fill="#7C7F82" font-family="Arial, sans-serif" font-size="23" font-weight="600">更理性、更系统，星星像当前时刻的活跃信标</text>
</svg>
